<svg xmlns="http://www.w3.org/2000/svg" viewBox="0 0 1280 786" width="1280" height="786">
  <line x1="296.0" y1="51.2" x2="401.6" y2="51.2" stroke="#333" stroke-width="3.2" class="wall"/>
  <line x1="534.4" y1="51.2" x2="662.4" y2="51.2" stroke="#333" stroke-width="3.2" class="wall"/>
  <line x1="790.4" y1="51.2" x2="1158.4" y2="51.2" stroke="#333" stroke-width="3.2" class="wall"/>
  <line x1="296.0" y1="52.8" x2="403.2" y2="52.8" stroke="#333" stroke-width="3.2" class="wall"/>
  <line x1="529.6" y1="52.8" x2="664.0" y2="52.8" stroke="#333" stroke-width="3.2" class="wall"/>
  <line x1="790.4" y1="52.8" x2="1158.4" y2="52.8" stroke="#333" stroke-width="3.2" class="wall"/>
  <line x1="296.0" y1="54.4" x2="403.2" y2="54.4" stroke="#333" stroke-width="3.2" class="wall"/>
  <line x1="529.6" y1="54.4" x2="664.0" y2="54.4" stroke="#333" stroke-width="3.2" class="wall"/>
  <line x1="790.4" y1="54.4" x2="1158.4" y2="54.4" stroke="#333" stroke-width="3.2" class="wall"/>
  <line x1="296.0" y1="56.0" x2="403.2" y2="56.0" stroke="#333" stroke-width="3.2" class="wall"/>
  <line x1="529.6" y1="56.0" x2="664.0" y2="56.0" stroke="#333" stroke-width="3.2" class="wall"/>
  <line x1="790.4" y1="56.0" x2="1158.4" y2="56.0" stroke="#333" stroke-width="3.2" class="wall"/>
  <line x1="296.0" y1="57.6" x2="404.8" y2="57.6" stroke="#333" stroke-width="3.2" class="wall"/>
  <line x1="529.6" y1="57.6" x2="664.0" y2="57.6" stroke="#333" stroke-width="3.2" class="wall"/>
  <line x1="788.8" y1="57.6" x2="1158.4" y2="57.6" stroke="#333" stroke-width="3.2" class="wall"/>
  <line x1="296.0" y1="59.2" x2="403.2" y2="59.2" stroke="#333" stroke-width="3.2" class="wall"/>
  <line x1="529.6" y1="59.2" x2="664.0" y2="59.2" stroke="#333" stroke-width="3.2" class="wall"/>
  <line x1="788.8" y1="59.2" x2="1158.4" y2="59.2" stroke="#333" stroke-width="3.2" class="wall"/>
  <line x1="296.0" y1="60.8" x2="403.2" y2="60.8" stroke="#333" stroke-width="3.2" class="wall"/>
  <line x1="529.6" y1="60.8" x2="664.0" y2="60.8" stroke="#333" stroke-width="3.2" class="wall"/>
  <line x1="790.4" y1="60.8" x2="1158.4" y2="60.8" stroke="#333" stroke-width="3.2" class="wall"/>
  <line x1="296.0" y1="62.4" x2="403.2" y2="62.4" stroke="#333" stroke-width="3.2" class="wall"/>
  <line x1="529.6" y1="62.4" x2="664.0" y2="62.4" stroke="#333" stroke-width="3.2" class="wall"/>
  <line x1="788.8" y1="62.4" x2="1158.4" y2="62.4" stroke="#333" stroke-width="3.2" class="wall"/>
  <line x1="296.0" y1="64.0" x2="404.8" y2="64.0" stroke="#333" stroke-width="3.2" class="wall"/>
  <line x1="529.6" y1="64.0" x2="664.0" y2="64.0" stroke="#333" stroke-width="3.2" class="wall"/>
  <line x1="788.8" y1="64.0" x2="1158.4" y2="64.0" stroke="#333" stroke-width="3.2" class="wall"/>
  <line x1="912.0" y1="352.0" x2="1158.4" y2="352.0" stroke="#333" stroke-width="8.0" class="wall"/>
  <line x1="60.8" y1="390.4" x2="342.4" y2="390.4" stroke="#333" stroke-width="3.2" class="wall"/>
  <line x1="60.8" y1="392.0" x2="344.0" y2="392.0" stroke="#333" stroke-width="3.2" class="wall"/>
  <line x1="60.8" y1="393.6" x2="344.0" y2="393.6" stroke="#333" stroke-width="3.2" class="wall"/>
  <line x1="822.4" y1="393.6" x2="921.6" y2="393.6" stroke="#333" stroke-width="3.2" class="wall"/>
  <line x1="60.8" y1="395.2" x2="344.0" y2="395.2" stroke="#333" stroke-width="3.2" class="wall"/>
  <line x1="822.4" y1="395.2" x2="921.6" y2="395.2" stroke="#333" stroke-width="3.2" class="wall"/>
  <line x1="60.8" y1="396.8" x2="344.0" y2="396.8" stroke="#333" stroke-width="3.2" class="wall"/>
  <line x1="822.4" y1="396.8" x2="921.6" y2="396.8" stroke="#333" stroke-width="3.2" class="wall"/>
  <line x1="60.8" y1="398.4" x2="344.0" y2="398.4" stroke="#333" stroke-width="3.2" class="wall"/>
  <line x1="822.4" y1="398.4" x2="921.6" y2="398.4" stroke="#333" stroke-width="3.2" class="wall"/>
  <line x1="60.8" y1="400.0" x2="344.0" y2="400.0" stroke="#333" stroke-width="3.2" class="wall"/>
  <line x1="822.4" y1="400.0" x2="921.6" y2="400.0" stroke="#333" stroke-width="3.2" class="wall"/>
  <line x1="60.8" y1="401.6" x2="344.0" y2="401.6" stroke="#333" stroke-width="3.2" class="wall"/>
  <line x1="820.8" y1="401.6" x2="921.6" y2="401.6" stroke="#333" stroke-width="3.2" class="wall"/>
  <line x1="60.8" y1="403.2" x2="344.0" y2="403.2" stroke="#333" stroke-width="3.2" class="wall"/>
  <line x1="912.0" y1="438.4" x2="1019.2" y2="438.4" stroke="#333" stroke-width="3.2" class="wall"/>
  <line x1="1073.6" y1="438.4" x2="1158.4" y2="438.4" stroke="#333" stroke-width="3.2" class="wall"/>
  <line x1="912.0" y1="440.0" x2="1019.2" y2="440.0" stroke="#333" stroke-width="3.2" class="wall"/>
  <line x1="1073.6" y1="440.0" x2="1158.4" y2="440.0" stroke="#333" stroke-width="3.2" class="wall"/>
  <line x1="912.0" y1="441.6" x2="1019.2" y2="441.6" stroke="#333" stroke-width="3.2" class="wall"/>
  <line x1="1073.6" y1="441.6" x2="1158.4" y2="441.6" stroke="#333" stroke-width="3.2" class="wall"/>
  <line x1="912.0" y1="443.2" x2="1019.2" y2="443.2" stroke="#333" stroke-width="3.2" class="wall"/>
  <line x1="1073.6" y1="443.2" x2="1158.4" y2="443.2" stroke="#333" stroke-width="3.2" class="wall"/>
  <line x1="912.0" y1="444.8" x2="1019.2" y2="444.8" stroke="#333" stroke-width="3.2" class="wall"/>
  <line x1="1073.6" y1="444.8" x2="1158.4" y2="444.8" stroke="#333" stroke-width="3.2" class="wall"/>
  <line x1="912.0" y1="446.4" x2="1019.2" y2="446.4" stroke="#333" stroke-width="3.2" class="wall"/>
  <line x1="1073.6" y1="446.4" x2="1158.4" y2="446.4" stroke="#333" stroke-width="3.2" class="wall"/>
  <line x1="334.4" y1="492.8" x2="379.2" y2="492.8" stroke="#333" stroke-width="3.2" class="wall"/>
  <line x1="459.2" y1="492.8" x2="560.0" y2="492.8" stroke="#333" stroke-width="3.2" class="wall"/>
  <line x1="640.0" y1="492.8" x2="832.0" y2="492.8" stroke="#333" stroke-width="3.2" class="wall"/>
  <line x1="334.4" y1="494.4" x2="379.2" y2="494.4" stroke="#333" stroke-width="3.2" class="wall"/>
  <line x1="459.2" y1="494.4" x2="560.0" y2="494.4" stroke="#333" stroke-width="3.2" class="wall"/>
  <line x1="640.0" y1="494.4" x2="832.0" y2="494.4" stroke="#333" stroke-width="3.2" class="wall"/>
  <line x1="334.4" y1="496.0" x2="379.2" y2="496.0" stroke="#333" stroke-width="3.2" class="wall"/>
  <line x1="459.2" y1="496.0" x2="560.0" y2="496.0" stroke="#333" stroke-width="3.2" class="wall"/>
  <line x1="640.0" y1="496.0" x2="832.0" y2="496.0" stroke="#333" stroke-width="3.2" class="wall"/>
  <line x1="334.4" y1="497.6" x2="379.2" y2="497.6" stroke="#333" stroke-width="3.2" class="wall"/>
  <line x1="459.2" y1="497.6" x2="560.0" y2="497.6" stroke="#333" stroke-width="3.2" class="wall"/>
  <line x1="640.0" y1="497.6" x2="832.0" y2="497.6" stroke="#333" stroke-width="3.2" class="wall"/>
  <line x1="334.4" y1="499.2" x2="379.2" y2="499.2" stroke="#333" stroke-width="3.2" class="wall"/>
  <line x1="459.2" y1="499.2" x2="560.0" y2="499.2" stroke="#333" stroke-width="3.2" class="wall"/>
  <line x1="640.0" y1="499.2" x2="832.0" y2="499.2" stroke="#333" stroke-width="3.2" class="wall"/>
  <line x1="334.4" y1="500.8" x2="379.2" y2="500.8" stroke="#333" stroke-width="3.2" class="wall"/>
  <line x1="459.2" y1="500.8" x2="561.6" y2="500.8" stroke="#333" stroke-width="3.2" class="wall"/>
  <line x1="641.6" y1="500.8" x2="832.0" y2="500.8" stroke="#333" stroke-width="3.2" class="wall"/>
  <line x1="497.6" y1="564.8" x2="560.0" y2="564.8" stroke="#333" stroke-width="3.2" class="wall"/>
  <line x1="496.0" y1="566.4" x2="560.0" y2="566.4" stroke="#333" stroke-width="3.2" class="wall"/>
  <line x1="496.0" y1="568.0" x2="560.0" y2="568.0" stroke="#333" stroke-width="3.2" class="wall"/>
  <line x1="496.0" y1="569.6" x2="560.0" y2="569.6" stroke="#333" stroke-width="3.2" class="wall"/>
  <line x1="496.0" y1="571.2" x2="560.0" y2="571.2" stroke="#333" stroke-width="3.2" class="wall"/>
  <line x1="496.0" y1="572.8" x2="560.0" y2="572.8" stroke="#333" stroke-width="3.2" class="wall"/>
  <line x1="60.8" y1="761.6" x2="145.6" y2="761.6" stroke="#333" stroke-width="3.2" class="wall"/>
  <line x1="272.0" y1="761.6" x2="393.6" y2="761.6" stroke="#333" stroke-width="3.2" class="wall"/>
  <line x1="446.4" y1="761.6" x2="628.8" y2="761.6" stroke="#333" stroke-width="3.2" class="wall"/>
  <line x1="753.6" y1="761.6" x2="921.6" y2="761.6" stroke="#333" stroke-width="3.2" class="wall"/>
  <line x1="1046.4" y1="761.6" x2="1158.4" y2="761.6" stroke="#333" stroke-width="3.2" class="wall"/>
  <line x1="60.8" y1="763.2" x2="145.6" y2="763.2" stroke="#333" stroke-width="3.2" class="wall"/>
  <line x1="272.0" y1="763.2" x2="393.6" y2="763.2" stroke="#333" stroke-width="3.2" class="wall"/>
  <line x1="446.4" y1="763.2" x2="628.8" y2="763.2" stroke="#333" stroke-width="3.2" class="wall"/>
  <line x1="753.6" y1="763.2" x2="921.6" y2="763.2" stroke="#333" stroke-width="3.2" class="wall"/>
  <line x1="1046.4" y1="763.2" x2="1158.4" y2="763.2" stroke="#333" stroke-width="3.2" class="wall"/>
  <line x1="60.8" y1="764.8" x2="145.6" y2="764.8" stroke="#333" stroke-width="3.2" class="wall"/>
  <line x1="272.0" y1="764.8" x2="393.6" y2="764.8" stroke="#333" stroke-width="3.2" class="wall"/>
  <line x1="446.4" y1="764.8" x2="628.8" y2="764.8" stroke="#333" stroke-width="3.2" class="wall"/>
  <line x1="753.6" y1="764.8" x2="921.6" y2="764.8" stroke="#333" stroke-width="3.2" class="wall"/>
  <line x1="1046.4" y1="764.8" x2="1158.4" y2="764.8" stroke="#333" stroke-width="3.2" class="wall"/>
  <line x1="60.8" y1="766.4" x2="145.6" y2="766.4" stroke="#333" stroke-width="3.2" class="wall"/>
  <line x1="272.0" y1="766.4" x2="393.6" y2="766.4" stroke="#333" stroke-width="3.2" class="wall"/>
  <line x1="446.4" y1="766.4" x2="628.8" y2="766.4" stroke="#333" stroke-width="3.2" class="wall"/>
  <line x1="753.6" y1="766.4" x2="921.6" y2="766.4" stroke="#333" stroke-width="3.2" class="wall"/>
  <line x1="1046.4" y1="766.4" x2="1158.4" y2="766.4" stroke="#333" stroke-width="3.2" class="wall"/>
  <line x1="60.8" y1="768.0" x2="147.2" y2="768.0" stroke="#333" stroke-width="3.2" class="wall"/>
  <line x1="272.0" y1="768.0" x2="393.6" y2="768.0" stroke="#333" stroke-width="3.2" class="wall"/>
  <line x1="446.4" y1="768.0" x2="628.8" y2="768.0" stroke="#333" stroke-width="3.2" class="wall"/>
  <line x1="753.6" y1="768.0" x2="921.6" y2="768.0" stroke="#333" stroke-width="3.2" class="wall"/>
  <line x1="1046.4" y1="768.0" x2="1158.4" y2="768.0" stroke="#333" stroke-width="3.2" class="wall"/>
  <line x1="60.8" y1="769.6" x2="145.6" y2="769.6" stroke="#333" stroke-width="3.2" class="wall"/>
  <line x1="272.0" y1="769.6" x2="393.6" y2="769.6" stroke="#333" stroke-width="3.2" class="wall"/>
  <line x1="446.4" y1="769.6" x2="628.8" y2="769.6" stroke="#333" stroke-width="3.2" class="wall"/>
  <line x1="753.6" y1="769.6" x2="921.6" y2="769.6" stroke="#333" stroke-width="3.2" class="wall"/>
  <line x1="1046.4" y1="769.6" x2="1160.0" y2="769.6" stroke="#333" stroke-width="3.2" class="wall"/>
  <line x1="60.8" y1="771.2" x2="145.6" y2="771.2" stroke="#333" stroke-width="3.2" class="wall"/>
  <line x1="272.0" y1="771.2" x2="393.6" y2="771.2" stroke="#333" stroke-width="3.2" class="wall"/>
  <line x1="446.4" y1="771.2" x2="628.8" y2="771.2" stroke="#333" stroke-width="3.2" class="wall"/>
  <line x1="753.6" y1="771.2" x2="921.6" y2="771.2" stroke="#333" stroke-width="3.2" class="wall"/>
  <line x1="1046.4" y1="771.2" x2="1158.4" y2="771.2" stroke="#333" stroke-width="3.2" class="wall"/>
  <line x1="60.8" y1="772.8" x2="145.6" y2="772.8" stroke="#333" stroke-width="3.2" class="wall"/>
  <line x1="272.0" y1="772.8" x2="393.6" y2="772.8" stroke="#333" stroke-width="3.2" class="wall"/>
  <line x1="446.4" y1="772.8" x2="628.8" y2="772.8" stroke="#333" stroke-width="3.2" class="wall"/>
  <line x1="753.6" y1="772.8" x2="921.6" y2="772.8" stroke="#333" stroke-width="3.2" class="wall"/>
  <line x1="1046.4" y1="772.8" x2="1160.0" y2="772.8" stroke="#333" stroke-width="3.2" class="wall"/>
  <line x1="60.8" y1="774.4" x2="145.6" y2="774.4" stroke="#333" stroke-width="3.2" class="wall"/>
  <line x1="272.0" y1="774.4" x2="393.6" y2="774.4" stroke="#333" stroke-width="3.2" class="wall"/>
  <line x1="446.4" y1="774.4" x2="628.8" y2="774.4" stroke="#333" stroke-width="3.2" class="wall"/>
  <line x1="753.6" y1="774.4" x2="921.6" y2="774.4" stroke="#333" stroke-width="3.2" class="wall"/>
  <line x1="1046.4" y1="774.4" x2="1158.4" y2="774.4" stroke="#333" stroke-width="3.2" class="wall"/>
  <line x1="60.8" y1="390.4" x2="60.8" y2="518.4" stroke="#333" stroke-width="3.2" class="wall"/>
  <line x1="60.8" y1="644.8" x2="60.8" y2="776.0" stroke="#333" stroke-width="3.2" class="wall"/>
  <line x1="62.4" y1="390.4" x2="62.4" y2="518.4" stroke="#333" stroke-width="3.2" class="wall"/>
  <line x1="62.4" y1="644.8" x2="62.4" y2="776.0" stroke="#333" stroke-width="3.2" class="wall"/>
  <line x1="64.0" y1="390.4" x2="64.0" y2="518.4" stroke="#333" stroke-width="3.2" class="wall"/>
  <line x1="64.0" y1="644.8" x2="64.0" y2="776.0" stroke="#333" stroke-width="3.2" class="wall"/>
  <line x1="65.6" y1="390.4" x2="65.6" y2="520.0" stroke="#333" stroke-width="3.2" class="wall"/>
  <line x1="65.6" y1="644.8" x2="65.6" y2="776.0" stroke="#333" stroke-width="3.2" class="wall"/>
  <line x1="67.2" y1="390.4" x2="67.2" y2="520.0" stroke="#333" stroke-width="3.2" class="wall"/>
  <line x1="67.2" y1="644.8" x2="67.2" y2="776.0" stroke="#333" stroke-width="3.2" class="wall"/>
  <line x1="68.8" y1="390.4" x2="68.8" y2="518.4" stroke="#333" stroke-width="3.2" class="wall"/>
  <line x1="68.8" y1="644.8" x2="68.8" y2="776.0" stroke="#333" stroke-width="3.2" class="wall"/>
  <line x1="70.4" y1="390.4" x2="70.4" y2="518.4" stroke="#333" stroke-width="3.2" class="wall"/>
  <line x1="70.4" y1="644.8" x2="70.4" y2="776.0" stroke="#333" stroke-width="3.2" class="wall"/>
  <line x1="72.0" y1="390.4" x2="72.0" y2="518.4" stroke="#333" stroke-width="3.2" class="wall"/>
  <line x1="72.0" y1="644.8" x2="72.0" y2="776.0" stroke="#333" stroke-width="3.2" class="wall"/>
  <line x1="73.6" y1="390.4" x2="73.6" y2="518.4" stroke="#333" stroke-width="3.2" class="wall"/>
  <line x1="73.6" y1="646.4" x2="73.6" y2="776.0" stroke="#333" stroke-width="3.2" class="wall"/>
  <line x1="296.0" y1="51.2" x2="296.0" y2="118.4" stroke="#333" stroke-width="3.2" class="wall"/>
  <line x1="296.0" y1="243.2" x2="296.0" y2="296.0" stroke="#333" stroke-width="3.2" class="wall"/>
  <line x1="297.6" y1="51.2" x2="297.6" y2="118.4" stroke="#333" stroke-width="3.2" class="wall"/>
  <line x1="297.6" y1="243.2" x2="297.6" y2="296.0" stroke="#333" stroke-width="3.2" class="wall"/>
  <line x1="299.2" y1="51.2" x2="299.2" y2="118.4" stroke="#333" stroke-width="3.2" class="wall"/>
  <line x1="299.2" y1="243.2" x2="299.2" y2="296.0" stroke="#333" stroke-width="3.2" class="wall"/>
  <line x1="300.8" y1="51.2" x2="300.8" y2="118.4" stroke="#333" stroke-width="3.2" class="wall"/>
  <line x1="300.8" y1="243.2" x2="300.8" y2="296.0" stroke="#333" stroke-width="3.2" class="wall"/>
  <line x1="302.4" y1="51.2" x2="302.4" y2="118.4" stroke="#333" stroke-width="3.2" class="wall"/>
  <line x1="302.4" y1="243.2" x2="302.4" y2="296.0" stroke="#333" stroke-width="3.2" class="wall"/>
  <line x1="304.0" y1="51.2" x2="304.0" y2="118.4" stroke="#333" stroke-width="3.2" class="wall"/>
  <line x1="304.0" y1="243.2" x2="304.0" y2="296.0" stroke="#333" stroke-width="3.2" class="wall"/>
  <line x1="305.6" y1="51.2" x2="305.6" y2="118.4" stroke="#333" stroke-width="3.2" class="wall"/>
  <line x1="305.6" y1="243.2" x2="305.6" y2="296.0" stroke="#333" stroke-width="3.2" class="wall"/>
  <line x1="307.2" y1="51.2" x2="307.2" y2="118.4" stroke="#333" stroke-width="3.2" class="wall"/>
  <line x1="307.2" y1="243.2" x2="307.2" y2="296.0" stroke="#333" stroke-width="3.2" class="wall"/>
  <line x1="308.8" y1="51.2" x2="308.8" y2="116.8" stroke="#333" stroke-width="3.2" class="wall"/>
  <line x1="308.8" y1="244.8" x2="308.8" y2="296.0" stroke="#333" stroke-width="3.2" class="wall"/>
  <line x1="334.4" y1="486.4" x2="334.4" y2="776.0" stroke="#333" stroke-width="3.2" class="wall"/>
  <line x1="336.0" y1="486.4" x2="336.0" y2="776.0" stroke="#333" stroke-width="3.2" class="wall"/>
  <line x1="337.6" y1="486.4" x2="337.6" y2="776.0" stroke="#333" stroke-width="3.2" class="wall"/>
  <line x1="339.2" y1="486.4" x2="339.2" y2="776.0" stroke="#333" stroke-width="3.2" class="wall"/>
  <line x1="340.8" y1="486.4" x2="340.8" y2="776.0" stroke="#333" stroke-width="3.2" class="wall"/>
  <line x1="342.4" y1="486.4" x2="342.4" y2="776.0" stroke="#333" stroke-width="3.2" class="wall"/>
  <line x1="496.0" y1="566.4" x2="496.0" y2="664.0" stroke="#333" stroke-width="3.2" class="wall"/>
  <line x1="496.0" y1="688.0" x2="496.0" y2="776.0" stroke="#333" stroke-width="3.2" class="wall"/>
  <line x1="497.6" y1="564.8" x2="497.6" y2="776.0" stroke="#333" stroke-width="3.2" class="wall"/>
  <line x1="499.2" y1="564.8" x2="499.2" y2="776.0" stroke="#333" stroke-width="3.2" class="wall"/>
  <line x1="500.8" y1="564.8" x2="500.8" y2="776.0" stroke="#333" stroke-width="3.2" class="wall"/>
  <line x1="502.4" y1="564.8" x2="502.4" y2="776.0" stroke="#333" stroke-width="3.2" class="wall"/>
  <line x1="504.0" y1="564.8" x2="504.0" y2="776.0" stroke="#333" stroke-width="3.2" class="wall"/>
  <line x1="550.4" y1="492.8" x2="550.4" y2="574.4" stroke="#333" stroke-width="3.2" class="wall"/>
  <line x1="552.0" y1="492.8" x2="552.0" y2="574.4" stroke="#333" stroke-width="3.2" class="wall"/>
  <line x1="553.6" y1="492.8" x2="553.6" y2="574.4" stroke="#333" stroke-width="3.2" class="wall"/>
  <line x1="555.2" y1="492.8" x2="555.2" y2="574.4" stroke="#333" stroke-width="3.2" class="wall"/>
  <line x1="556.8" y1="492.8" x2="556.8" y2="574.4" stroke="#333" stroke-width="3.2" class="wall"/>
  <line x1="558.4" y1="492.8" x2="558.4" y2="574.4" stroke="#333" stroke-width="3.2" class="wall"/>
  <line x1="822.4" y1="486.4" x2="822.4" y2="776.0" stroke="#333" stroke-width="3.2" class="wall"/>
  <line x1="824.0" y1="486.4" x2="824.0" y2="776.0" stroke="#333" stroke-width="3.2" class="wall"/>
  <line x1="825.6" y1="486.4" x2="825.6" y2="776.0" stroke="#333" stroke-width="3.2" class="wall"/>
  <line x1="827.2" y1="486.4" x2="827.2" y2="776.0" stroke="#333" stroke-width="3.2" class="wall"/>
  <line x1="828.8" y1="486.4" x2="828.8" y2="776.0" stroke="#333" stroke-width="3.2" class="wall"/>
  <line x1="830.4" y1="486.4" x2="830.4" y2="776.0" stroke="#333" stroke-width="3.2" class="wall"/>
  <line x1="912.0" y1="348.8" x2="912.0" y2="448.0" stroke="#333" stroke-width="3.2" class="wall"/>
  <line x1="913.6" y1="347.2" x2="913.6" y2="448.0" stroke="#333" stroke-width="3.2" class="wall"/>
  <line x1="915.2" y1="347.2" x2="915.2" y2="448.0" stroke="#333" stroke-width="3.2" class="wall"/>
  <line x1="916.8" y1="347.2" x2="916.8" y2="448.0" stroke="#333" stroke-width="3.2" class="wall"/>
  <line x1="918.4" y1="347.2" x2="918.4" y2="448.0" stroke="#333" stroke-width="3.2" class="wall"/>
  <line x1="920.0" y1="347.2" x2="920.0" y2="448.0" stroke="#333" stroke-width="3.2" class="wall"/>
  <line x1="1145.6" y1="51.2" x2="1145.6" y2="132.8" stroke="#333" stroke-width="3.2" class="wall"/>
  <line x1="1145.6" y1="424.0" x2="1145.6" y2="542.4" stroke="#333" stroke-width="3.2" class="wall"/>
  <line x1="1145.6" y1="667.2" x2="1145.6" y2="776.0" stroke="#333" stroke-width="3.2" class="wall"/>
  <line x1="1147.2" y1="51.2" x2="1147.2" y2="132.8" stroke="#333" stroke-width="3.2" class="wall"/>
  <line x1="1147.2" y1="424.0" x2="1147.2" y2="540.8" stroke="#333" stroke-width="3.2" class="wall"/>
  <line x1="1147.2" y1="667.2" x2="1147.2" y2="776.0" stroke="#333" stroke-width="3.2" class="wall"/>
  <line x1="1148.8" y1="51.2" x2="1148.8" y2="132.8" stroke="#333" stroke-width="3.2" class="wall"/>
  <line x1="1148.8" y1="424.0" x2="1148.8" y2="540.8" stroke="#333" stroke-width="3.2" class="wall"/>
  <line x1="1148.8" y1="667.2" x2="1148.8" y2="776.0" stroke="#333" stroke-width="3.2" class="wall"/>
  <line x1="1150.4" y1="51.2" x2="1150.4" y2="132.8" stroke="#333" stroke-width="3.2" class="wall"/>
  <line x1="1150.4" y1="424.0" x2="1150.4" y2="542.4" stroke="#333" stroke-width="3.2" class="wall"/>
  <line x1="1150.4" y1="667.2" x2="1150.4" y2="776.0" stroke="#333" stroke-width="3.2" class="wall"/>
  <line x1="1152.0" y1="51.2" x2="1152.0" y2="132.8" stroke="#333" stroke-width="3.2" class="wall"/>
  <line x1="1152.0" y1="424.0" x2="1152.0" y2="542.4" stroke="#333" stroke-width="3.2" class="wall"/>
  <line x1="1152.0" y1="667.2" x2="1152.0" y2="776.0" stroke="#333" stroke-width="3.2" class="wall"/>
  <line x1="1153.6" y1="51.2" x2="1153.6" y2="132.8" stroke="#333" stroke-width="3.2" class="wall"/>
  <line x1="1153.6" y1="424.0" x2="1153.6" y2="540.8" stroke="#333" stroke-width="3.2" class="wall"/>
  <line x1="1153.6" y1="667.2" x2="1153.6" y2="776.0" stroke="#333" stroke-width="3.2" class="wall"/>
  <line x1="1155.2" y1="51.2" x2="1155.2" y2="132.8" stroke="#333" stroke-width="3.2" class="wall"/>
  <line x1="1155.2" y1="424.0" x2="1155.2" y2="540.8" stroke="#333" stroke-width="3.2" class="wall"/>
  <line x1="1155.2" y1="667.2" x2="1155.2" y2="776.0" stroke="#333" stroke-width="3.2" class="wall"/>
  <line x1="1156.8" y1="51.2" x2="1156.8" y2="132.8" stroke="#333" stroke-width="3.2" class="wall"/>
  <line x1="1156.8" y1="424.0" x2="1156.8" y2="542.4" stroke="#333" stroke-width="3.2" class="wall"/>
  <line x1="1156.8" y1="667.2" x2="1156.8" y2="776.0" stroke="#333" stroke-width="3.2" class="wall"/>
</svg>